<svg width="750" height="500" viewBox="0 0 750 500" fill="none" xmlns="http://www.w3.org/2000/svg">
<path d="M475 200.84V244.93C475.066 248.713 476.619 252.319 479.324 254.965C482.028 257.612 485.666 259.086 489.45 259.07H647.52C649.419 259.074 651.301 258.704 653.057 257.98C654.813 257.256 656.409 256.193 657.754 254.852C659.098 253.511 660.166 251.918 660.894 250.164C661.623 248.41 661.999 246.529 662 244.63V207.36L681.68 186.68L489.47 186.08C487.547 186.086 485.645 186.475 483.873 187.222C482.101 187.97 480.496 189.062 479.15 190.435C477.803 191.808 476.743 193.435 476.031 195.221C475.319 197.008 474.968 198.917 475 200.84Z" fill="#F5F5F5"/>
<path d="M638.66 212.8L495.17 212.13L495.19 207.72L638.67 208.39L638.66 212.8Z" fill="#E0E0E0"/>
<path d="M638.66 227.31L495.17 226.64L495.19 222.23L638.67 222.9L638.66 227.31Z" fill="#E0E0E0"/>
<path d="M581.891 236.757L581.869 241.167L638.638 241.444L638.66 237.035L581.891 236.757Z" fill="#E0E0E0"/>
<path d="M205.47 425.61C227.58 410.16 232.59 381.49 231.72 355.71C231.57 351.41 232.04 346.87 230 343.1C227.96 339.33 223.18 336.74 219.32 338.56C216.13 340.06 214.74 343.78 212.95 346.85C210.563 350.951 207.065 354.292 202.86 356.49C200.12 357.91 196.73 358.78 194.03 357.29C190.31 355.24 189.88 350.11 189.9 345.83L190.05 321.91C190.05 317.63 190.05 313.26 188.76 309.2C187.47 305.14 184.49 301.37 180.42 300.2C176.35 299.03 171.32 301.4 170.42 305.59C170.06 307.33 170.42 309.14 170.29 310.92C170.16 312.7 169.35 314.66 167.66 315.16C165.97 315.66 164.24 314.45 162.96 313.16C158.54 308.84 155.55 303.28 152.75 297.74C149.95 292.2 147.23 286.54 143.22 281.83C139.21 277.12 133.67 273.38 127.54 273.03C121.41 272.68 114.88 276.47 113.34 282.49C111.8 288.51 115.34 294.64 119.13 299.49C124.809 306.749 131.509 313.149 139.02 318.49C140.37 319.49 141.83 320.49 142.35 322.06C143.27 324.92 140.57 327.75 137.76 328.69C134.57 329.75 131.1 329.42 127.76 329.81C124.42 330.2 120.76 331.68 119.55 334.81C117.79 339.18 121.45 343.81 125.05 346.81C132.262 352.83 140.454 357.565 149.27 360.81C152.41 361.96 155.73 362.97 158.27 365.18C160.81 367.39 162.34 371.24 160.81 374.25C159.28 377.26 155.34 378.25 152.04 377.62C148.74 376.99 145.8 375.22 142.65 374.04C136.77 371.82 129.18 372.22 125.41 377.31C122.94 380.65 122.72 385.31 123.97 389.31C125.22 393.31 127.76 396.72 130.46 399.88C139.88 410.94 151.95 419.88 165.59 424.57C179.23 429.26 191.87 430.57 205.43 425.63" fill="#F5F5F5"/>
<path d="M205.8 444.71C204.602 432.76 202.258 420.952 198.8 409.45C194.525 395.409 189.443 381.626 183.58 368.17C182.053 364.577 180.54 361.037 179.04 357.55C177.54 354.07 176.04 350.62 174.39 347.33C171.188 341.029 167.639 334.909 163.76 329C160.09 323.33 156.41 318.08 152.92 313.2C149.43 308.32 146.09 303.85 142.92 299.89C137.87 293.623 132.33 287.768 126.35 282.38C124.24 280.47 122.55 279.04 121.35 278.09L120 277C119.858 276.872 119.704 276.758 119.54 276.66C119.666 276.804 119.803 276.938 119.95 277.06L121.22 278.2C122.34 279.2 124 280.65 126.07 282.59C131.954 288.052 137.419 293.949 142.42 300.23C145.6 304.23 148.91 308.68 152.37 313.57C155.83 318.46 159.49 323.71 163.13 329.38C166.981 335.28 170.507 341.385 173.69 347.67C175.34 350.94 176.81 354.36 178.31 357.85L182.85 368.46C188.698 381.892 193.789 395.64 198.1 409.64C201.57 421.095 203.957 432.849 205.23 444.75" fill="#E0E0E0"/>
<path d="M174.17 347.3C174.38 346.712 174.521 346.101 174.59 345.48C174.82 344.3 175.08 342.57 175.38 340.48C175.99 336.22 176.62 330.31 177.3 323.79C177.98 317.27 178.69 311.38 179.36 307.14C179.69 305.02 179.97 303.31 180.18 302.14C180.329 301.534 180.409 300.914 180.42 300.29C180.175 300.865 179.994 301.465 179.88 302.08C179.58 303.24 179.21 304.95 178.81 307.08C178 311.31 177.19 317.21 176.52 323.75L174.83 340.45C174.62 342.45 174.43 344.15 174.29 345.51C174.188 346.101 174.148 346.701 174.17 347.3Z" fill="#E0E0E0"/>
<path d="M119.16 337C119.879 337.162 120.613 337.249 121.35 337.26C122.76 337.39 124.81 337.56 127.35 337.85C132.35 338.4 139.35 339.39 146.93 340.85C154.51 342.31 161.36 343.9 166.26 345.2C168.71 345.84 170.69 346.4 172.06 346.79C172.757 347.027 173.473 347.201 174.2 347.31C173.56 346.976 172.891 346.702 172.2 346.49C170.85 346.02 168.9 345.37 166.45 344.66C161.58 343.22 154.75 341.52 147.12 340.07C140.619 338.816 134.056 337.898 127.46 337.32C124.93 337.1 122.87 337.01 121.46 336.99C120.695 336.919 119.925 336.923 119.16 337Z" fill="#E0E0E0"/>
<path d="M198.14 408.44C198.29 408.233 198.414 408.008 198.51 407.77C198.77 407.23 199.08 406.57 199.45 405.77C200.26 404.03 201.37 401.5 202.69 398.34C205.35 392.04 208.74 383.22 212.35 373.44C215.96 363.66 219.27 354.81 221.79 348.44L224.79 340.93C225.11 340.11 225.37 339.43 225.59 338.93C225.707 338.698 225.785 338.448 225.82 338.19C225.668 338.401 225.544 338.629 225.45 338.87C225.19 339.4 224.88 340.06 224.51 340.87C223.7 342.61 222.59 345.14 221.27 348.3C218.61 354.6 215.22 363.42 211.61 373.21C208 383 204.69 391.83 202.17 398.21C200.93 401.3 199.92 403.84 199.17 405.72C198.85 406.54 198.59 407.22 198.37 407.77C198.26 407.981 198.183 408.207 198.14 408.44Z" fill="#E0E0E0"/>
<path d="M125 384.88C125.231 385.004 125.476 385.101 125.73 385.17L127.85 385.89L135.68 388.42C142.29 390.57 151.38 393.63 161.43 397.03C171.48 400.43 180.61 403.42 187.27 405.43C190.59 406.43 193.27 407.22 195.17 407.72L197.34 408.29C197.59 408.369 197.849 408.419 198.11 408.44C197.881 408.309 197.635 408.208 197.38 408.14L195.26 407.43L187.43 404.89C180.82 402.75 171.72 399.68 161.68 396.28C151.64 392.88 142.5 389.89 135.84 387.88C132.52 386.88 129.84 386.09 127.94 385.59L125.8 385C125.541 384.919 125.271 384.878 125 384.88Z" fill="#E0E0E0"/>
<path d="M256.48 155.21V189.38C256.48 192.349 255.301 195.196 253.203 197.296C251.105 199.396 248.259 200.577 245.29 200.58H122.77C119.801 200.577 116.955 199.396 114.857 197.296C112.759 195.196 111.58 192.349 111.58 189.38V160.51L96.3301 144.51L245.26 144C246.734 143.996 248.194 144.283 249.556 144.845C250.919 145.407 252.157 146.232 253.199 147.274C254.242 148.316 255.068 149.553 255.631 150.915C256.194 152.277 256.483 153.736 256.48 155.21Z" fill="#E0E0E0"/>
<path d="M129.64 164.72L240.82 164.21L240.81 160.79L129.63 161.3L129.64 164.72Z" fill="#FAFAFA"/>
<path d="M129.64 175.96L240.82 175.45L240.81 172.03L129.63 172.55L129.64 175.96Z" fill="#FAFAFA"/>
<path d="M173.605 183.3L129.615 183.515L129.632 186.935L173.621 186.72L173.605 183.3Z" fill="#FAFAFA"/>
<path d="M196.45 218.27L196.45 453.27C196.45 459.649 201.621 464.82 208 464.82H555.3C561.679 464.82 566.85 459.649 566.85 453.27V218.27C566.85 211.891 561.679 206.72 555.3 206.72H208C201.621 206.72 196.45 211.891 196.45 218.27Z" fill="#263238"/>
<path d="M221.79 214.86L221.79 456.69H531.12V214.86L221.79 214.86Z" fill="white"/>
<path d="M557.906 338.071C559.158 332.748 555.857 327.419 550.535 326.168C545.212 324.917 539.883 328.217 538.632 333.54C537.381 338.862 540.681 344.191 546.003 345.442C551.326 346.694 556.655 343.393 557.906 338.071Z" fill="#455A64"/>
<path d="M207.11 298.12V373.42C207.11 374.093 207.657 374.64 208.33 374.64H209.98C210.654 374.64 211.2 374.093 211.2 373.42V298.12C211.2 297.446 210.654 296.9 209.98 296.9H208.33C207.657 296.9 207.11 297.446 207.11 298.12Z" fill="#455A64"/>
<path d="M309.538 356.749C317.125 345.22 313.93 329.724 302.401 322.136C290.872 314.549 275.376 317.744 267.788 329.273C260.201 340.801 263.396 356.298 274.925 363.886C286.454 371.473 301.95 368.278 309.538 356.749Z" fill="#219EAF"/>
<path opacity="0.3" d="M309.538 356.749C317.125 345.22 313.93 329.724 302.401 322.136C290.872 314.549 275.376 317.744 267.788 329.273C260.201 340.801 263.396 356.298 274.925 363.886C286.454 371.473 301.95 368.278 309.538 356.749Z" fill="white"/>
<path d="M280 336.741C280.94 336.661 281.8 337.741 281.92 339.081C282.04 340.421 281.35 341.611 280.4 341.691C279.45 341.771 278.6 340.69 278.49 339.36C278.38 338.03 279.09 336.821 280 336.741Z" fill="#263238"/>
<path d="M295.92 336.41C294.98 336.41 294.16 337.41 294.1 338.83C294.04 340.25 294.77 341.34 295.72 341.38C296.67 341.42 297.49 340.38 297.54 338.97C297.59 337.56 296.87 336.45 295.92 336.41Z" fill="#263238"/>
<path d="M298.65 348C298.65 348.29 293.99 348.53 288.25 348.53C282.51 348.53 277.84 348.29 277.84 348C277.84 347.71 282.5 347.46 288.25 347.46C294 347.46 298.65 347.69 298.65 348Z" fill="#263238"/>
<path d="M282 333.87C281.94 334.17 280.75 334.16 279.36 334.38C277.97 334.6 276.84 334.96 276.69 334.7C276.54 334.44 277.59 333.58 279.2 333.33C280.81 333.08 282 333.59 282 333.87Z" fill="#263238"/>
<path d="M300.431 335.08C300.251 335.32 299.171 334.76 297.781 334.34C296.391 333.92 295.191 333.77 295.161 333.46C295.131 333.15 296.491 332.82 298.091 333.32C299.691 333.82 300.621 334.87 300.431 335.08Z" fill="#263238"/>
<path d="M495.165 345.053C497.415 330.927 487.787 317.651 473.661 315.401C459.535 313.151 446.26 322.779 444.01 336.905C441.76 351.031 451.387 364.306 465.513 366.556C479.639 368.806 492.915 359.179 495.165 345.053Z" fill="#219EAF"/>
<path opacity="0.3" d="M495.165 345.053C497.415 330.927 487.787 317.651 473.661 315.401C459.535 313.151 446.26 322.779 444.01 336.905C441.76 351.031 451.387 364.306 465.513 366.556C479.639 368.806 492.915 359.179 495.165 345.053Z" fill="black"/>
<path d="M460.63 334.44C461.63 334.36 462.51 335.44 462.63 336.86C462.75 338.28 462.05 339.49 461.07 339.57C460.09 339.65 459.19 338.57 459.07 337.15C458.95 335.73 459.65 334.52 460.63 334.44Z" fill="#263238"/>
<path d="M477.1 334.1C476.1 334.1 475.27 335.18 475.21 336.6C475.15 338.02 475.91 339.2 476.89 339.24C477.87 339.28 478.72 338.16 478.78 336.74C478.84 335.32 478.09 334.14 477.1 334.1Z" fill="#263238"/>
<path d="M479.93 346.1C479.82 346.24 478.74 345.47 476.93 344.52C474.55 343.277 471.905 342.625 469.22 342.62C466.532 342.739 463.899 343.42 461.49 344.62C459.61 345.54 458.49 346.24 458.4 346.1C458.31 345.96 459.29 345.1 461.14 343.96C463.579 342.486 466.353 341.656 469.2 341.55C472.064 341.542 474.872 342.343 477.3 343.86C479.09 345 480 346 479.93 346.1Z" fill="#263238"/>
<path d="M462.61 331.46C462.7 331.57 462.53 331.9 462.1 332.27C461.536 332.779 460.845 333.124 460.1 333.27C459.342 333.415 458.558 333.328 457.85 333.02C457.32 332.78 457.08 332.5 457.14 332.37C457.2 332.24 458.49 332.5 459.91 332.22C461.33 331.94 462.42 331.22 462.61 331.46Z" fill="#263238"/>
<path d="M481.781 332.72C481.781 332.85 481.541 333.1 480.961 333.28C480.198 333.496 479.387 333.468 478.641 333.2C477.908 332.942 477.252 332.506 476.731 331.93C476.351 331.49 476.211 331.14 476.311 331.04C476.411 330.94 477.581 331.7 478.981 332.19C480.381 332.68 481.681 332.42 481.781 332.72Z" fill="#263238"/>
<path d="M419.93 412.86L425.93 409.89L431.79 413.15L430.81 406.52L435.72 401.96L429.11 400.84L426.29 394.76L423.19 400.7L416.54 401.5L421.22 406.29L419.93 412.86Z" fill="#E0E0E0"/>
<path d="M395.451 412.86L401.451 409.89L407.311 413.15L406.331 406.52L411.241 401.96L404.631 400.84L401.811 394.76L398.711 400.7L392.061 401.5L396.741 406.29L395.451 412.86Z" fill="#219EAF"/>
<path d="M370.97 412.86L376.97 409.89L382.82 413.15L381.85 406.52L386.76 401.96L380.15 400.84L377.33 394.76L374.23 400.7L367.58 401.5L372.26 406.29L370.97 412.86Z" fill="#219EAF"/>
<path d="M346.491 412.86L352.491 409.89L358.341 413.15L357.371 406.52L362.281 401.96L355.671 400.84L352.851 394.76L349.751 400.7L343.101 401.5L347.781 406.29L346.491 412.86Z" fill="#219EAF"/>
<path d="M322.01 412.86L328.01 409.89L333.86 413.15L332.89 406.52L337.8 401.96L331.19 400.84L328.37 394.76L325.27 400.7L318.62 401.5L323.3 406.29L322.01 412.86Z" fill="#219EAF"/>
<path d="M436 265.51C436 265.66 409.14 265.78 376 265.78C342.86 265.78 316 265.66 316 265.51C316 265.36 342.85 265.25 376 265.25C409.15 265.25 436 265.37 436 265.51Z" fill="#263238"/>
<path d="M406.5 258.31C406.5 258.46 393.24 258.58 376.88 258.58C360.52 258.58 347.25 258.46 347.25 258.31C347.25 258.16 360.51 258.04 376.88 258.04C393.25 258.04 406.5 258.16 406.5 258.31Z" fill="#263238"/>
<path d="M413.632 345.493C419.411 327.557 409.556 308.332 391.62 302.553C373.684 296.774 354.459 306.628 348.68 324.564C342.901 342.5 352.756 361.725 370.692 367.504C388.627 373.284 407.852 363.429 413.632 345.493Z" fill="#219EAF"/>
<path d="M369.36 326.4C370.65 326.3 371.82 327.72 371.98 329.59C372.14 331.46 371.21 333.05 369.92 333.16C368.63 333.27 367.45 331.84 367.3 329.98C367.15 328.12 368.07 326.51 369.36 326.4Z" fill="#263238"/>
<path d="M391.05 326C389.76 325.94 388.64 327.42 388.57 329.29C388.5 331.16 389.48 332.72 390.77 332.77C392.06 332.82 393.18 331.35 393.26 329.48C393.34 327.61 392.35 326 391.05 326Z" fill="#263238"/>
<path d="M394.77 337.15C394.83 337.21 394.55 337.56 394 338.15C393.217 338.995 392.36 339.768 391.44 340.46C390.061 341.493 388.543 342.324 386.93 342.93C384.932 343.68 382.803 344.02 380.67 343.93C378.553 343.818 376.472 343.337 374.52 342.51C372.937 341.87 371.419 341.076 369.99 340.14C367.57 338.52 366.29 337.26 366.36 337.14C366.43 337.02 367.92 338.04 370.36 339.46C371.799 340.28 373.301 340.985 374.85 341.57C376.721 342.298 378.696 342.727 380.7 342.84C382.696 342.925 384.69 342.637 386.58 341.99C388.132 341.451 389.613 340.726 390.99 339.83C392.15 339.03 393.09 338.36 393.7 337.83C394.31 337.3 394.72 337.1 394.77 337.15Z" fill="#263238"/>
<path d="M370.9 318.73C370.84 319.03 369.21 318.92 367.27 319.23C365.33 319.54 363.81 320.13 363.66 319.86C363.51 319.59 364.95 318.51 367.11 318.18C369.27 317.85 371 318.45 370.9 318.73Z" fill="#263238"/>
<path d="M398.37 320.32C398.18 320.56 396.74 319.7 394.8 319.12C392.86 318.54 391.19 318.42 391.18 318.12C391.17 317.82 392.97 317.44 395.12 318.12C397.27 318.8 398.56 320.11 398.37 320.32Z" fill="#263238"/>
<path d="M366.92 334.7C367.05 334.7 367.27 335.03 367.3 335.7C367.316 336.546 367.056 337.375 366.56 338.06C366.075 338.761 365.371 339.281 364.56 339.54C363.94 339.72 363.56 339.63 363.51 339.54C363.51 339.24 364.77 338.8 365.67 337.48C366.57 336.16 366.62 334.75 366.92 334.7Z" fill="#263238"/>
<path d="M397.66 337.84C397.66 337.97 397.4 338.18 396.87 338.22C396.173 338.252 395.487 338.04 394.93 337.62C394.361 337.209 393.954 336.611 393.78 335.93C393.67 335.41 393.78 335.08 393.92 335.07C394.22 335.07 394.56 336.07 395.56 336.76C396.56 337.45 397.59 337.54 397.66 337.84Z" fill="#263238"/>
<path d="M422.85 334.7C422.85 334.7 422.85 334.47 422.79 334.01L422.66 332.01C422.66 331.57 422.61 331.07 422.58 330.53C422.55 329.99 422.4 329.4 422.31 328.76C422.22 328.12 422.1 327.43 421.98 326.7C421.836 325.918 421.653 325.143 421.43 324.38C420.44 320.417 418.855 316.628 416.73 313.14C413.957 308.488 410.314 304.414 406 301.14L404.17 299.79C403.53 299.37 402.86 298.98 402.17 298.57C401.48 298.16 400.84 297.71 400.11 297.38L397.92 296.33L396.81 295.8L395.64 295.38L393.26 294.51C392.46 294.24 391.61 294.07 390.78 293.85C389.944 293.6 389.092 293.406 388.23 293.27C386.47 292.941 384.689 292.734 382.9 292.65C381.99 292.65 381.07 292.53 380.15 292.55L377.36 292.69C376.89 292.69 376.42 292.69 375.95 292.78L374.54 293C373.61 293.15 372.65 293.26 371.71 293.46C369.801 293.881 367.923 294.432 366.09 295.11C364.204 295.788 362.367 296.593 360.59 297.52C359.7 298.01 358.85 298.57 357.97 299.09C357.54 299.37 357.08 299.6 356.67 299.91L355.43 300.84C353.75 302.088 352.153 303.444 350.65 304.9L348.51 307.26L347.97 307.86L347.48 308.5L346.48 309.79L345.48 311.08L344.63 312.47L343.78 313.87L343.36 314.57L343 315.3L341.57 318.3L340.43 321.42C337.53 330.046 337.53 339.384 340.43 348.01C340.82 349.01 341.2 350.09 341.58 351.13C341.96 352.17 342.53 353.13 343.01 354.13L343.37 354.87L343.79 355.57L344.64 356.96L345.49 358.35L346.49 359.65L347.49 360.94L347.97 361.58L348.51 362.17L350.65 364.53C352.153 365.989 353.75 367.349 355.43 368.6L356.68 369.52C357.09 369.84 357.55 370.07 357.98 370.35C358.86 370.87 359.71 371.43 360.6 371.92C364.119 373.741 367.856 375.105 371.72 375.98C372.66 376.18 373.62 376.29 374.56 376.44L375.96 376.66C376.43 376.72 376.9 376.72 377.37 376.75L380.16 376.89C381.08 376.89 382 376.82 382.91 376.79C384.699 376.706 386.48 376.499 388.24 376.17C389.101 376.029 389.953 375.835 390.79 375.59C391.63 375.37 392.47 375.19 393.28 374.93L395.65 374.06L396.82 373.64L397.93 373.11L400.12 372.06C400.827 371.699 401.514 371.302 402.18 370.87C402.85 370.46 403.53 370.07 404.18 369.65L406 368.29C410.318 365.017 413.964 360.943 416.74 356.29C418.864 352.785 420.445 348.978 421.43 345C421.653 344.24 421.836 343.469 421.98 342.69C422.1 341.96 422.21 341.27 422.31 340.63C422.41 339.99 422.52 339.4 422.58 338.86C422.64 338.32 422.64 337.86 422.66 337.38C422.72 336.51 422.76 335.84 422.79 335.38C422.82 334.92 422.85 334.69 422.85 334.69C422.85 334.69 422.85 334.92 422.85 335.38C422.85 335.84 422.8 336.52 422.77 337.38C422.77 337.83 422.77 338.38 422.71 338.87C422.65 339.36 422.55 340.01 422.47 340.65C422.39 341.29 422.27 341.99 422.16 342.73C422.022 343.512 421.845 344.286 421.63 345.05C420.679 349.055 419.117 352.89 417 356.42C414.229 361.116 410.575 365.232 406.24 368.54L404.4 369.92C403.76 370.35 403.08 370.74 402.4 371.16C401.72 371.58 401.06 372.03 400.32 372.36L398.12 373.43L397 374L395.82 374.43L393.43 375.31C392.61 375.59 391.76 375.76 390.92 375.99C390.073 376.242 389.211 376.442 388.34 376.59C386.56 376.923 384.759 377.134 382.95 377.22C382.04 377.22 381.11 377.35 380.18 377.34L377.36 377.2C376.88 377.2 376.36 377.2 375.93 377.11L374.51 376.89C373.56 376.74 372.59 376.63 371.64 376.43C369.71 376 367.809 375.445 365.95 374.77C364.044 374.085 362.187 373.273 360.39 372.34C359.48 371.85 358.62 371.28 357.73 370.75C357.275 370.498 356.834 370.221 356.41 369.92L355.15 368.98C353.448 367.722 351.831 366.352 350.31 364.88L348.14 362.49L347.59 361.89L347.1 361.24L346.1 359.94L345.1 358.62L344.24 357.22L343.38 355.81L342.95 355.1L342.59 354.35L341.14 351.35C340.75 350.3 340.37 349.24 339.98 348.19C337.047 339.456 337.047 330.004 339.98 321.27L341.14 318.11L342.59 315.11L342.96 314.36L343.39 313.65L344.25 312.24L345.11 310.84L346.11 309.53L347.11 308.22L347.6 307.57L348.14 306.97C348.87 306.18 349.59 305.38 350.31 304.59C351.833 303.117 353.45 301.744 355.15 300.48L356.41 299.54C356.83 299.23 357.29 298.99 357.73 298.71C358.62 298.19 359.49 297.62 360.39 297.13C362.187 296.196 364.044 295.385 365.95 294.7C367.809 294.025 369.71 293.47 371.64 293.04C372.59 292.84 373.56 292.73 374.51 292.58L375.93 292.36C376.4 292.3 376.88 292.3 377.35 292.27L380.17 292.13C381.11 292.13 382.03 292.21 382.95 292.25C384.759 292.336 386.56 292.547 388.34 292.88C389.21 293.03 390.071 293.227 390.92 293.47C391.76 293.71 392.61 293.88 393.42 294.15L395.82 295.03L397 295.47L398.12 296.01L400.33 297.07C401.07 297.41 401.72 297.89 402.4 298.28C403.08 298.67 403.76 299.09 404.4 299.52L406.24 300.9C410.573 304.202 414.227 308.311 417 313C419.117 316.521 420.682 320.345 421.64 324.34C421.82 325.17 422.09 325.93 422.17 326.67C422.25 327.41 422.38 328.1 422.48 328.75C422.58 329.4 422.67 329.98 422.72 330.53C422.77 331.08 422.72 331.53 422.78 332.01C422.78 332.89 422.84 333.56 422.86 334.01C422.88 334.46 422.85 334.7 422.85 334.7Z" fill="#219EAF"/>
<path d="M531.12 214.86H221.79V230.29H531.12V214.86Z" fill="#E0E0E0"/>
<path d="M231.77 222.151C231.77 222.564 231.647 222.968 231.418 223.312C231.188 223.655 230.862 223.923 230.48 224.081C230.098 224.24 229.678 224.281 229.272 224.2C228.867 224.12 228.494 223.921 228.202 223.628C227.91 223.336 227.711 222.964 227.63 222.558C227.549 222.153 227.591 221.733 227.749 221.351C227.907 220.969 228.175 220.642 228.519 220.413C228.862 220.183 229.266 220.061 229.68 220.061C230.234 220.061 230.766 220.281 231.158 220.673C231.55 221.065 231.77 221.596 231.77 222.151Z" fill="white"/>
<path d="M238.71 222.151C238.71 222.564 238.588 222.968 238.358 223.312C238.128 223.655 237.802 223.923 237.42 224.081C237.038 224.24 236.618 224.281 236.213 224.2C235.807 224.12 235.435 223.921 235.142 223.628C234.85 223.336 234.651 222.964 234.57 222.558C234.49 222.153 234.531 221.733 234.689 221.351C234.848 220.969 235.115 220.642 235.459 220.413C235.803 220.183 236.207 220.061 236.62 220.061C237.175 220.061 237.706 220.281 238.098 220.673C238.49 221.065 238.71 221.596 238.71 222.151Z" fill="white"/>
<path d="M245.66 222.151C245.66 222.564 245.538 222.968 245.308 223.312C245.079 223.655 244.752 223.923 244.37 224.081C243.988 224.24 243.568 224.281 243.163 224.2C242.757 224.12 242.385 223.921 242.093 223.628C241.8 223.336 241.601 222.964 241.521 222.558C241.44 222.153 241.481 221.733 241.64 221.351C241.798 220.969 242.066 220.642 242.409 220.413C242.753 220.183 243.157 220.061 243.57 220.061C244.124 220.063 244.654 220.284 245.045 220.676C245.437 221.067 245.658 221.597 245.66 222.151Z" fill="white"/>
<path d="M497 277.68C497 277.83 443.33 277.95 377.13 277.95C310.93 277.95 257.25 277.83 257.25 277.68C257.25 277.53 310.92 277.42 377.13 277.42C443.34 277.42 497 277.54 497 277.68Z" fill="#E0E0E0"/>
<path d="M497 283.63C497 283.77 443.33 283.89 377.13 283.89C310.93 283.89 257.25 283.77 257.25 283.63C257.25 283.49 310.92 283.36 377.13 283.36C443.34 283.36 497 283.48 497 283.63Z" fill="#E0E0E0"/>
<path d="M669.18 464.82C669.18 464.97 540.18 465.08 381.06 465.08C221.94 465.08 92.9004 465 92.9004 464.82C92.9004 464.64 221.9 464.56 381.06 464.56C540.22 464.56 669.18 464.68 669.18 464.82Z" fill="#263238"/>
<path d="M621.81 410.79C619.31 414.35 614.46 413.17 612.21 411C609.96 408.83 609.01 405.67 608.14 402.66C606.14 395.79 604.14 388.58 605.64 381.58C605.995 379.458 606.93 377.475 608.34 375.85C609.049 375.047 609.958 374.445 610.975 374.106C611.992 373.767 613.08 373.703 614.13 373.92C616.58 374.56 618.13 376.92 619.2 379.24C622.446 385.967 624.154 393.331 624.2 400.8C624.2 404.28 623.8 407.92 621.84 410.8" fill="#219EAF"/>
<g opacity="0.2">
<path d="M621.81 410.79C619.31 414.35 614.46 413.17 612.21 411C609.96 408.83 609.01 405.67 608.14 402.66C606.14 395.79 604.14 388.58 605.64 381.58C605.995 379.458 606.93 377.475 608.34 375.85C609.049 375.047 609.958 374.445 610.975 374.106C611.992 373.767 613.08 373.703 614.13 373.92C616.58 374.56 618.13 376.92 619.2 379.24C622.446 385.967 624.154 393.331 624.2 400.8C624.2 404.28 623.8 407.92 621.84 410.8" fill="black"/>
</g>
<path d="M612.46 428.85C608.265 426.875 603.547 426.3 599 427.21C596.57 427.62 594 428.35 592.37 430.21C590.74 432.07 590.37 435.26 592.3 436.83C593.527 437.662 595.006 438.037 596.48 437.89C600.03 437.89 603.97 437.23 606.8 439.36C608.42 440.58 609.5 442.61 611.43 443.21C612.394 443.424 613.4 443.321 614.301 442.918C615.202 442.514 615.948 441.831 616.43 440.97C617.352 439.19 617.556 437.125 617 435.2C616.784 433.863 616.261 432.595 615.474 431.493C614.686 430.392 613.655 429.487 612.46 428.85Z" fill="#219EAF"/>
<path d="M628.67 415.9C625.95 412.69 625.44 408 626.67 403.97C628.038 399.965 630.484 396.415 633.74 393.71C637.433 390.42 641.734 387.883 646.4 386.24C648.204 385.493 650.149 385.152 652.1 385.24C653.069 385.3 654.01 385.594 654.841 386.097C655.672 386.601 656.368 387.298 656.87 388.13C658.21 390.67 656.93 393.75 655.55 396.27C653.109 400.726 650.32 404.983 647.21 409C644.72 412.22 641.86 415.39 638.06 416.84C634.26 418.29 630.32 418.12 628.3 415.49" fill="#219EAF"/>
<path d="M622 464.571C621.866 464.04 621.789 463.497 621.77 462.951C621.66 461.781 621.51 460.291 621.34 458.531C621.118 456.355 620.784 454.192 620.34 452.051C619.759 449.438 618.97 446.877 617.98 444.391C617.013 441.91 615.696 439.58 614.07 437.471C612.75 435.75 611.062 434.346 609.13 433.361C607.821 432.71 606.417 432.271 604.97 432.061C604.427 432.04 603.888 431.963 603.36 431.831C603.905 431.765 604.456 431.765 605 431.831C606.503 431.947 607.972 432.33 609.34 432.961C611.372 433.926 613.155 435.346 614.55 437.111C616.241 439.252 617.605 441.631 618.6 444.171C619.603 446.692 620.386 449.295 620.94 451.951C621.362 454.121 621.649 456.315 621.8 458.521C621.94 460.401 622 461.921 622.02 462.971C622.07 463.503 622.063 464.039 622 464.571Z" fill="#263238"/>
<path d="M621.67 461.17C621.646 460.921 621.646 460.67 621.67 460.42C621.67 459.86 621.67 459.14 621.67 458.27C621.67 456.41 621.67 453.71 621.57 450.37C621.41 443.7 620.83 434.5 619.72 424.37C618.61 414.24 617.12 405.15 615.78 398.62C615.46 396.98 615.14 395.51 614.78 394.22C614.42 392.93 614.25 391.81 614.01 390.91C613.77 390.01 613.64 389.37 613.51 388.82C613.43 388.578 613.386 388.325 613.38 388.07C613.491 388.298 613.578 388.535 613.64 388.78L614.26 390.84C614.54 391.73 614.82 392.84 615.15 394.13C615.48 395.42 615.84 396.88 616.15 398.52C617.992 407.034 619.377 415.639 620.3 424.3C621.41 434.44 621.91 443.67 621.95 450.35C621.95 453.69 621.95 456.4 621.84 458.27C621.78 459.14 621.74 459.85 621.7 460.42C621.729 460.67 621.719 460.923 621.67 461.17Z" fill="#263238"/>
<path d="M621.63 443.37C621.569 442.622 621.569 441.869 621.63 441.12C621.72 439.68 621.92 437.59 622.32 435.04C622.821 432.049 623.489 429.087 624.32 426.17C625.299 422.592 626.529 419.086 628 415.68C630.572 409.419 634.258 403.676 638.88 398.73C639.686 397.884 640.545 397.09 641.45 396.35C641.84 396.02 642.19 395.69 642.54 395.43L643.54 394.74C644.138 394.289 644.77 393.884 645.43 393.53C643.259 395.25 641.192 397.096 639.24 399.06C634.761 404.059 631.172 409.789 628.63 416C627.159 419.378 625.913 422.849 624.9 426.39C623.9 429.65 623.29 432.65 622.8 435.17C622.31 437.69 622.07 439.76 621.9 441.17C621.869 441.91 621.778 442.645 621.63 443.37Z" fill="#263238"/>
<path d="M270.4 41.6205C270.169 41.6629 269.935 41.6929 269.7 41.7105L267.7 41.8805C266.597 41.9551 265.5 42.1122 264.42 42.3505C263.77 42.4905 263.06 42.5505 262.34 42.7705C261.62 42.9905 260.84 43.2105 260.03 43.4405C256.086 44.7066 252.371 46.601 249.03 49.0505C244.639 52.3296 240.984 56.4924 238.3 61.2705C234.186 68.684 232.411 77.1694 233.21 85.6105C233.27 86.5305 233.47 87.4405 233.6 88.3705C233.724 89.3054 233.912 90.2308 234.16 91.1405C235.042 94.9552 236.492 98.616 238.46 102C242.65 109.324 249.123 115.074 256.89 118.37C260.983 120.079 265.357 121.012 269.79 121.12C274.356 121.301 278.913 120.581 283.2 119L284.51 118.5L284.68 118.44L284.84 118.51L303.84 127.89L303.29 128.38L297.23 110.29L297.16 110.06L297.32 109.89C301.857 105.224 305.196 99.5286 307.05 93.2905C308.718 87.5904 309.141 81.5983 308.29 75.7205C306.933 65.9236 302.03 56.9647 294.51 50.5405C291.662 48.2055 288.518 46.2554 285.16 44.7405C282.624 43.6827 279.988 42.8853 277.29 42.3605L274.35 41.9005L272.18 41.7705L270.85 41.6805C270.699 41.6791 270.548 41.6624 270.4 41.6305C270.55 41.6128 270.701 41.6128 270.85 41.6305H272.18L274.37 41.6905L277.37 42.1005C280.11 42.5815 282.791 43.3491 285.37 44.3905C288.787 45.8787 291.986 47.8231 294.88 50.1705C298.392 53.1189 301.378 56.6423 303.71 60.5905C306.434 65.1983 308.231 70.2937 309 75.5905C309.89 81.5641 309.481 87.6594 307.8 93.4605C305.933 99.8242 302.546 105.638 297.93 110.4L298 110C300 115.8 302 121.85 304.08 128.08L304.39 128.99L303.53 128.57L284.53 119.2H284.86L283.52 119.71C279.136 121.319 274.476 122.043 269.81 121.84C265.281 121.731 260.811 120.778 256.63 119.03C248.712 115.653 242.119 109.773 237.86 102.29C235.863 98.8622 234.391 95.1545 233.49 91.2905C233.238 90.3653 233.054 89.4227 232.94 88.4705C232.81 87.5305 232.6 86.6105 232.55 85.6705C232.379 83.8357 232.333 81.9915 232.41 80.1505C232.514 76.6615 233.048 73.1986 234 69.8405C234.915 66.7578 236.183 63.7914 237.78 61.0005C240.539 56.1678 244.287 51.9728 248.78 48.6905C252.168 46.2452 255.935 44.3736 259.93 43.1505L262.28 42.5105C262.97 42.3482 263.668 42.2214 264.37 42.1305C265.461 41.907 266.568 41.7732 267.68 41.7305L269.73 41.6305L270.4 41.6205Z" fill="#263238"/>
<path d="M279.341 76.5008H276.571L270.431 68.1508L270.371 62.6208C270.371 62.6208 266.091 62.4108 266.671 69.6208C267.251 76.8308 266.671 75.0108 266.671 75.0108C266.671 75.0108 257.591 75.1508 256.841 75.9508C256.301 76.5308 256.151 85.5608 256.121 90.4508C256.066 91.6501 256.42 92.8326 257.125 93.8046C257.83 94.7765 258.844 95.4803 260.001 95.8008C260.328 95.881 260.664 95.9213 261.001 95.9208C263.271 95.9208 274.821 93.9208 274.821 93.9208L279.611 93.8608L279.341 76.5008Z" fill="#219EAF"/>
<path d="M287.251 74.8906L285.761 93.8406L281.021 93.9006L280.811 75.3506L287.251 74.8906Z" fill="#219EAF"/>
</svg>
