<svg xmlns="http://www.w3.org/2000/svg" viewBox="0 0 500 500"><g id="freepik--background-complete--inject-385"><polygon points="488.29 487.29 13.37 487.29 12.59 11.92 489.18 11.92 488.29 487.29" style="fill:#e0e0e0"></polygon><path d="M12.59,11.92l.32,191.18H46.78v6.42h6.8v59.76H74.49V199.66h6.18v-59h7.9V127.41h30.66v13.27h7.9v59h6.19v16.58H148V108.38h81.31V209h9.35V174.78h49.59v54.59h26.43v-60.5l4.57-4.58v-16.4l4.62-4.63V127.12l9.84-9.85h13.16l9.83,9.85v16.14l4.63,4.63v16.4l4.57,4.58v60.5H392.3V192.13h42.63V129.34l54-.33.22-117.09Z" style="fill:#f5f5f5"></path><polygon points="488.96 85.23 13.37 327.48 13.37 366.56 488.96 129.01 488.96 85.23" style="fill:#fafafa"></polygon><polygon points="488.29 173.57 13.37 415.49 13.37 440.55 488.29 194.08 488.29 173.57" style="fill:#fafafa"></polygon></g><g id="freepik--Window--inject-385"><g style="opacity:0.2"><rect x="404.07" y="11.92" width="12.04" height="475.41"></rect></g><g style="opacity:0.2"><rect x="65.08" y="15.05" width="12.04" height="472.28"></rect></g><g style="opacity:0.2"><rect x="13.33" y="56.83" width="474.96" height="6.11"></rect></g><g style="opacity:0.2"><rect x="12.59" y="400.68" width="475.7" height="6.11"></rect></g><rect x="12.59" y="47.86" width="476.63" height="8.97" style="fill:#263238"></rect><rect x="69.57" y="11.92" width="12.04" height="475.41" style="fill:#263238"></rect><rect x="409.32" y="11.92" width="12.04" height="475.41" style="fill:#263238"></rect><rect x="12.59" y="392.7" width="476.63" height="8.97" style="fill:#263238"></rect><path d="M409.32,392.59c0,.15-72.87.26-162.74.26s-162.75-.11-162.75-.26,72.85-.26,162.75-.26S409.32,392.45,409.32,392.59Z" style="fill:#fff"></path><path d="M488.27,392.53c0,.14-14.89.26-33.26.26s-33.25-.12-33.25-.26,14.88-.26,33.25-.26S488.27,392.38,488.27,392.53Z" style="fill:#fff"></path><path d="M69.83,391.86c0,.14-12.58.26-28.08.26s-28.09-.12-28.09-.26,12.57-.26,28.09-.26S69.83,391.72,69.83,391.86Z" style="fill:#fff"></path><path d="M81.75,44c-.14,0-.26-7.14-.26-16s.12-16,.26-16,.26,7.14.26,16S81.9,44,81.75,44Z" style="fill:#fff"></path><path d="M383.6,47.86c0,.15-67.57.26-150.91.26S81.75,48,81.75,47.86s67.57-.26,150.94-.26S383.6,47.72,383.6,47.86Z" style="fill:#fff"></path><path d="M489.18,48c0,.14-15.09.26-33.71.26s-33.72-.12-33.72-.26,15.09-.26,33.72-.26S489.18,47.88,489.18,48Z" style="fill:#fff"></path><path d="M421.35,13c.14,0,.26,7.38.26,16.49S421.49,46,421.35,46s-.26-7.38-.26-16.49S421.21,13,421.35,13Z" style="fill:#fff"></path><path d="M422.05,387.41c-.15,0-.26-69.53-.26-155.27s.11-155.27.26-155.27.26,69.5.26,155.27S422.19,387.41,422.05,387.41Z" style="fill:#fff"></path><path d="M81.62,387.41c-.15,0-.26-69.53-.26-155.27s.11-155.27.26-155.27.26,69.5.26,155.27S81.76,387.41,81.62,387.41Z" style="fill:#fff"></path><path d="M81.62,487.33c-.15,0-.26-29.63-.26-46.78s.11-31.05.26-31.05.25,13.9.25,31.05S81.76,487.33,81.62,487.33Z" style="fill:#fff"></path><path d="M422.05,487.33c-.15,0-.26-29.63-.26-46.78s.11-31.05.26-31.05.25,13.9.25,31.05S422.19,487.33,422.05,487.33Z" style="fill:#fff"></path><path d="M59.25,48.13c0,.14-9.67.26-21.59.26s-21.6-.12-21.6-.26,9.67-.26,21.6-.26S59.25,48,59.25,48.13Z" style="fill:#fff"></path></g><g id="freepik--Character--inject-385"><g style="opacity:0.2"><path d="M368.48,317.65V306.82H357.75V153a7.07,7.07,0,0,0,2.52-1.73c2.06-2.19,2.67-5.3,3.22-8.16a54.57,54.57,0,0,0,1.13-10.28c0-2.79-.42-6-3.65-6.44a2,2,0,0,0-.36,0l-4.1.06V14.76a1.38,1.38,0,0,0-2.75,0V126.42h-1.15c-1.65,0-3.25.33-4.24,1.83a7.71,7.71,0,0,0-.95,3.37,36,36,0,0,0-.28,4.41,36.39,36.39,0,0,0,1.14,9.57c.72,2.77,1.84,5.76,4.53,7.17a5.52,5.52,0,0,0,2.19.62V306.82H288.67c.46-5.28.81-9.27,1-10.87.9-8.08,1.69-24.34-18.11-21.55A60,60,0,0,0,258,278a2.4,2.4,0,0,0-1.77-.4l-.41-3.95a18.17,18.17,0,0,0-.44-4.28l-.37-3.59.79-30,1.41.89c2.38,1.49,4.54,2.81,6.13,3.75a14.86,14.86,0,0,0,2.63,1.41h0l.55-.86c7.68,4.84,15.07,9.2,17.26,9.52,7.12,1,19.09-30.95,21.66-38.06,3.28.31,7.9.68,9,.41,1.69-.44,1.3-4.13,1.3-4.13l1.09-.89a4.65,4.65,0,0,0,.55-4.56c1.81-2.49-.86-4.17-.86-4.17a6.76,6.76,0,0,0-.52-3.9c-.41-.89-2.18-1.16-4-1.19l3.43-9.31a10.51,10.51,0,0,1,10.56-1.87l17.57,6.19,1.46-3.95.58-1.59-59.08-20.82-.59,1.58-1.45,4,17.4,6.14s8.88,4.11,8.6,8.62l-2.69,7.29c-.9-.64-4.61,1.11-5.89,2.29s-2.78,6.13-2.78,6.13l-1.55,3.51,0,0L281.31,225,278,222.94l2.31-3.6-23.48-17.28a9.73,9.73,0,0,0-1-.68c0-.23-.07-.36-.07-.36l-1.73-.46c-.21-.07-.42-.12-.62-.17l-3-.82a8.29,8.29,0,0,0-7.91-2.12l-4.92-1.31-1,0-.11-1.81h0L236.4,192h0c.78-.18,9.62-2.44,9.2-11.61-.21-4.63-1.44-14.14-2.65-22.73a17.7,17.7,0,0,0-2.78-7.27,11.3,11.3,0,0,1,2.06,4.17,22.6,22.6,0,0,0,6.75-2.8c2.47-1.4,6.95-5.31,6.54-7.83a5.42,5.42,0,0,0-4.14-4,26.62,26.62,0,0,0-9.4.08,50.16,50.16,0,0,0-5.23,1.15c-7.19-5.78-16.88-3-16.88-3-12.14,2.62-14.26,14-14.43,16a27.86,27.86,0,0,0,.56,6.66l.18-.11c0,.41,0,.83.07,1.28.31,4.08,1.22,6.23,2.16,7.42-1.77.32-3.62,1.48-3.29,5.06.59,6.54,7.18,4.6,7.17,4.42l1.12,17.93-.63,0-7.23,2.06-.29-.84s-4.67-1.52-7.07,2.72l.08.2-1.38.39h0s-7.81,2.8-11.11,10.46c-.77,1.78-12.6,23-12.6,23l1.15.73L168,246.39s-1.7,5.93-.26,8.48,6.93,7.2,13.54.93L189.11,245l1.32.85,3.14-4.86c.19,1.37.35,2.54.48,3.41l.46,25v.56a13.31,13.31,0,0,0-.13,6.7,2.19,2.19,0,0,0-1.25.64c-3.83.56-14.28,3-14.28,13.64l1.09,7.63h-.14c0,.36.23,1.34.54,2.78l.54,3.79.27-.08q.19.87.42,1.83H159.48a4.15,4.15,0,0,0-.08-.91,3.7,3.7,0,0,0-.09.91H139.6V225.74a6.94,6.94,0,0,0,2.52-1.73c2.06-2.19,2.67-5.3,3.22-8.16a53,53,0,0,0,1.13-10.28c0-2.79-.42-6-3.65-6.44a2,2,0,0,0-.36,0l-4.1.06V14.76a1.37,1.37,0,0,0-2.74,0V199.19h-1.16c-1.65,0-3.25.33-4.24,1.83a8,8,0,0,0-.95,3.37,38.11,38.11,0,0,0-.28,4.41,36.81,36.81,0,0,0,1.14,9.57c.72,2.77,1.84,5.76,4.53,7.18a5.67,5.67,0,0,0,2.2.61v80.65H124.42a3.17,3.17,0,0,0-.09-.91,4.15,4.15,0,0,0-.08.91h-7.36v10.83h7.18c0,2.3,0,4.83,0,7.48,0,9.06.09,16.63.22,18.67h-9.55v3.14h2.36v0l0,.25.67,4.7.42,2.95,5.67,39.49h13V487a1.37,1.37,0,0,0,2.74,0V394.35h20.25l4.34-39.52a1.19,1.19,0,0,0,.32,0,1,1,0,0,0-.31-.05l.31-2.77.52-4.78a11.22,11.22,0,0,0,1.87-.11,13.71,13.71,0,0,0-1.85-.1v0h2.23V343.8h-7.83c.13-2,.22-9.61.22-18.67,0-2.65,0-5.18,0-7.48h24.41c4.37,18.67,10.52,44.16,10.52,44.16l23.84-2.18-6.14-42H263l-.79,42,21.93,2.2s2-24.82,3.58-44.16H355v.3h-3.89v4.66H355V487a1.38,1.38,0,0,0,2.75,0V322.61h3.89V318h-3.89v-.3ZM255.79,234.77l5.12,3.52c-1-.67-2.2-1.4-3.42-2.17l-1.7-1.07Zm-61.85,5.59,0-.05v.44C194,240.62,194,240.49,193.94,240.36ZM136.86,318h-3.2v4.66h3.2V343.8H124.4c.13-2,.22-9.61.22-18.67,0-2.65,0-5.18,0-7.48h12.26Zm0-95.47v.89a3.48,3.48,0,0,1-2-1.11c-1.64-1.75-2.14-4.62-2.57-6.89a35.63,35.63,0,0,1-.5-7.58,27.68,27.68,0,0,1,.21-3c.11-.88.15-2.27,1.08-2.7a6.22,6.22,0,0,1,2.28-.15l7.13-.1c1.8.1,1.29,4.12,1.23,5.32a57.6,57.6,0,0,1-.91,7.52c-.43,2.31-.79,5-2.23,7a4.81,4.81,0,0,1-1,1v-.1A1.37,1.37,0,0,0,136.86,222.48ZM139.6,343.8V322.61h4.59V318H139.6v-.3h19.53c0,2.3,0,4.83,0,7.48,0,9.06.09,16.63.22,18.67Zm109.82-37.1-.22.12h-.14l.81-.36h0Zm.7.12.35-.17.31.1,12.46.07ZM355,149.71v.89a3.6,3.6,0,0,1-2-1.11c-1.63-1.75-2.13-4.62-2.56-6.89a35.63,35.63,0,0,1-.51-7.58c0-1,.09-2,.22-3s.15-2.27,1.08-2.7a6.22,6.22,0,0,1,2.28-.15l7.13-.1c1.8.1,1.28,4.12,1.23,5.32a57.6,57.6,0,0,1-.91,7.52c-.43,2.31-.8,5-2.23,6.95a5.09,5.09,0,0,1-.95,1v-.1A1.38,1.38,0,0,0,355,149.71Z"></path></g><path d="M293,347.05l-3.45,21.52s20.39,10.72,20.13,14.75l-41.33-5.14,4-33.76Z" style="fill:#263238"></path><path d="M277,365.16a1.74,1.74,0,0,0-1.41,1.81,1.63,1.63,0,0,0,1.75,1.43,1.81,1.81,0,0,0,1.48-1.92,1.68,1.68,0,0,0-2-1.28" style="fill:#e0e0e0"></path><path d="M268.32,378.18l.54-3.39,39.42,6.2s1.74,1,1.37,2.33Z" style="fill:#455a64"></path><path d="M290.22,368.44c0,.21-1.05.17-2.13.71s-1.71,1.33-1.88,1.23.27-1.25,1.58-1.88S290.29,368.26,290.22,368.44Z" style="fill:#fff"></path><path d="M294.33,370.8c0,.21-.9.45-1.69,1.23s-1.1,1.67-1.3,1.64-.19-1.21.82-2.16S294.35,370.61,294.33,370.8Z" style="fill:#fff"></path><path d="M296.14,376.38c-.19,0-.34-1,.31-2.1s1.66-1.38,1.72-1.2-.59.71-1.12,1.58S296.34,376.38,296.14,376.38Z" style="fill:#fff"></path><path d="M290.47,363.45c-.11.18-1-.22-2.15-.28s-2.08.19-2.17,0,.87-.81,2.22-.72S290.59,363.3,290.47,363.45Z" style="fill:#fff"></path><path d="M270.76,360.46c0-.14,5.31.05,11.85.44s11.83.81,11.82,1-5.32-.05-11.85-.43S270.75,360.61,270.76,360.46Z" style="fill:#455a64"></path><path d="M222.91,347.73l5.48,24.63L237.86,391c.66,1.54-.43,6.05-2,6.61h0a2.85,2.85,0,0,1-2.59-.37c-4.82-3.46-22.48-16.28-22.63-18.34a39.28,39.28,0,0,1-.13-12.12l-5.35-14.68Z" style="fill:#263238"></path><path d="M238.39,393.34a13,13,0,0,0-4.43-5.42L224.09,379l-2.45-2.59a8.12,8.12,0,0,0-8-2.39c-2.45.67-3.32,2.17-3.13,4.2a4.43,4.43,0,0,0,1.43,2.64c2.06,1.82,7.87,6.73,21.23,16.41a2.83,2.83,0,0,0,2.67.36A3,3,0,0,0,238.39,393.34Z" style="fill:#455a64"></path><path d="M190.27,298.5c.36,3.49,14.79,63.31,14.79,63.31l23.83-2.18L220,298.5Z" style="fill:#263238"></path><path d="M228.89,359.63a22.19,22.19,0,0,1-3.48.46l-8.42.78-8.43.73a24.68,24.68,0,0,1-3.5.21,3.38,3.38,0,0,1,.92-.21c.6-.1,1.47-.22,2.54-.36,2.15-.28,5.13-.59,8.42-.88s6.28-.51,8.44-.64A24,24,0,0,1,228.89,359.63Z" style="fill:#455a64"></path><path d="M259.57,282.48s8.5-6.12,22.45-8.08c19.79-2.79,19,13.47,18.11,21.55-.82,7.38-5.49,65.86-5.49,65.86l-23.48-2.36,2.55-52.63-12.46-.07L246.55,302Z" style="fill:#263238"></path><path d="M199,302.73s6.39,6.66,21.56,6.66c10.44,0,29.63,1.49,36.91-1.67,15.25-6.6,15.25-8.53,15.25-8.53V277.3s-36.26,6.34-42.5,4.22S205,277.07,205,277.07s-15.66.85-15.66,13.8l2,14.2Z" style="fill:#263238"></path><path d="M275.55,297.88a17,17,0,0,1-2.49,1.85c-1.58,1.07-3.82,2.47-6.36,3.91s-4.91,2.61-6.65,3.41a16.5,16.5,0,0,1-2.86,1.17,19.73,19.73,0,0,1,2.7-1.5c1.69-.88,4-2.11,6.55-3.54s4.79-2.78,6.42-3.76A20.08,20.08,0,0,1,275.55,297.88Z" style="fill:#455a64"></path><path d="M210.49,308.63a9.13,9.13,0,0,1-2.38-.73,30,30,0,0,1-5.32-2.78,30.57,30.57,0,0,1-4.67-3.78,9,9,0,0,1-1.62-1.89,17.18,17.18,0,0,1,1.87,1.62,42.2,42.2,0,0,0,4.7,3.61,41.7,41.7,0,0,0,5.19,2.88A18.53,18.53,0,0,1,210.49,308.63Z" style="fill:#455a64"></path><path d="M253.41,157.64a18.19,18.19,0,0,0-19.16-15.41l-.94.06c-10.16,1.15-14.84,10.23-13.38,20.14l2.82,16.4,1.61,25.73,22.95-4.1-.53-8.46s9.72-2,9.28-11.63C255.85,175.74,254.62,166.23,253.41,157.64Z" style="fill:#ffbf9d"></path><path d="M246.86,192a24.22,24.22,0,0,1-13.05-3s3.42,6.73,13.15,5.32Z" style="fill:#ff9a6c"></path><path d="M251.35,167a1.38,1.38,0,0,1-1.27,1.46,1.33,1.33,0,0,1-1.51-1.15,1.37,1.37,0,0,1,1.26-1.46A1.33,1.33,0,0,1,251.35,167Z" style="fill:#263238"></path><path d="M251.57,162.45c-.16.19-1.26-.52-2.77-.43s-2.57.88-2.74.71.07-.4.54-.77a3.88,3.88,0,0,1,4.4-.23C251.48,162.05,251.65,162.37,251.57,162.45Z" style="fill:#263238"></path><path d="M238.06,168a1.39,1.39,0,0,1-1.26,1.46,1.35,1.35,0,0,1-1.52-1.16,1.37,1.37,0,0,1,1.27-1.45A1.32,1.32,0,0,1,238.06,168Z" style="fill:#263238"></path><path d="M236.79,163.55c-.16.19-1.27-.52-2.77-.43s-2.57.88-2.74.71.07-.4.53-.77a3.9,3.9,0,0,1,2.18-.8,3.8,3.8,0,0,1,2.22.57C236.69,163.15,236.87,163.47,236.79,163.55Z" style="fill:#263238"></path><path d="M242.89,174.17a10.8,10.8,0,0,1,2.42-.57c.38-.06.74-.15.79-.41a1.84,1.84,0,0,0-.32-1.1l-1.3-2.8c-1.82-4-3.16-7.28-3-7.35s1.77,3.1,3.58,7.09l1.26,2.82a2.17,2.17,0,0,1,.29,1.47.93.93,0,0,1-.6.58,2.57,2.57,0,0,1-.65.13A10.55,10.55,0,0,1,242.89,174.17Z" style="fill:#263238"></path><path d="M238.52,175.44c.24,0,.34,1.57,1.8,2.62s3.2.79,3.22,1-.37.33-1.1.39a4.07,4.07,0,0,1-2.68-.75,3.39,3.39,0,0,1-1.41-2.21C238.25,175.84,238.41,175.43,238.52,175.44Z" style="fill:#263238"></path><path d="M236.84,157.76c-.12.4-1.64.3-3.39.61s-3.16.85-3.41.51c-.12-.17.11-.56.66-1a5.75,5.75,0,0,1,2.5-1,5.89,5.89,0,0,1,2.69.16C236.55,157.27,236.9,157.56,236.84,157.76Z" style="fill:#263238"></path><path d="M251.53,158.21c-.25.35-1.3.06-2.55.12s-2.29.35-2.56,0c-.11-.16,0-.51.48-.85a3.77,3.77,0,0,1,4.11-.1C251.47,157.71,251.64,158,251.53,158.21Z" style="fill:#263238"></path><path d="M252.31,152.7s-2.94-5.86-6-7.09c-3.68-1.5-5,2.43-8.46,1.69s-7-2.18-10.32.59c-3.66,3-1.75,4.93-1.74,9.19.05,17.3-2.89,22.35-4.28,14.28-.15-.88-4.11.06-4.82-9.43-.36-4.89.21-6.51,1.12-10,.77-3,2.35-5.08,5.27-7.47,4.6-3.78,11.21-4.22,15.72-4S252.28,145.16,252.31,152.7Z" style="fill:#263238"></path><path d="M222.05,171.67a2.66,2.66,0,0,0-3-2.35c-1.82.27-3.79,1.4-3.46,5.09.6,6.54,7.19,4.61,7.18,4.42S222.32,174.4,222.05,171.67Z" style="fill:#ffbf9d"></path><path d="M221.07,176.49s-.1.09-.29.2a1.2,1.2,0,0,1-.87.09,2.83,2.83,0,0,1-1.57-2.41,3.75,3.75,0,0,1,.18-1.66,1.32,1.32,0,0,1,.8-1,.59.59,0,0,1,.71.25c.11.17.08.31.12.32s.13-.13,0-.39a.72.72,0,0,0-.3-.39.9.9,0,0,0-.66-.11,1.64,1.64,0,0,0-1.12,1.12,3.79,3.79,0,0,0-.24,1.86,3,3,0,0,0,2,2.68,1.24,1.24,0,0,0,1-.27C221.08,176.65,221.1,176.5,221.07,176.49Z" style="fill:#ff9a6c"></path><path d="M228.79,141s.18,0,.48.14a2.26,2.26,0,0,1,1.09.81l.09.12.09-.13a8.17,8.17,0,0,1,3.09-2.74,6.72,6.72,0,0,1,2.6-.72,5.61,5.61,0,0,1,2.88.64,5.46,5.46,0,0,1,1.78,1.47,4.35,4.35,0,0,1,.85,1.94l0,.2.2-.06a3.81,3.81,0,0,1,2.8.17,3.64,3.64,0,0,1,1.62,1.52,5,5,0,0,1,.53,1.91,1.41,1.41,0,0,0,0-.54,3.65,3.65,0,0,0-.39-1.47,3.77,3.77,0,0,0-1.68-1.68,4.09,4.09,0,0,0-3-.24l.24.14a4.74,4.74,0,0,0-.9-2.11,5.78,5.78,0,0,0-1.91-1.58,5.84,5.84,0,0,0-3.08-.67,6.64,6.64,0,0,0-2.74.79,8,8,0,0,0-3.11,2.93h.17a2.26,2.26,0,0,0-1.22-.79A1.09,1.09,0,0,0,228.79,141Z" style="fill:#455a64"></path><path d="M222.06,156.8a3.81,3.81,0,0,0,7.35-1.53,3.67,3.67,0,0,0,5.06-4,3.26,3.26,0,0,0,4.85-1.37,4.36,4.36,0,0,0,4.05.32,2.55,2.55,0,0,0,1-3.57,3.65,3.65,0,0,0-2.48-1.16,18.85,18.85,0,0,0-20.33,11.38" style="fill:#263238"></path><path d="M253.66,152a12.25,12.25,0,0,0-6.81-3.8c-7.94-1.35-18.8-.93-28.83,11.63l-1.56.94a27.86,27.86,0,0,1-.56-6.66c.17-1.94,2.29-13.34,14.43-16C230.33,138.14,248.74,132.83,253.66,152Z" style="fill:#45A49D"></path><g style="opacity:0.30000000000000004"><path d="M253.66,152a12.25,12.25,0,0,0-6.81-3.8c-7.94-1.35-18.8-.93-28.83,11.63l-1.56.94a27.86,27.86,0,0,1-.56-6.66c.17-1.94,2.29-13.34,14.43-16C230.33,138.14,248.74,132.83,253.66,152Z"></path></g><path d="M218.66,158.77c4.05-5.66,9.7-9.32,15.73-12.41s11.36-5.28,18.05-6.38a26.62,26.62,0,0,1,9.4-.08,5.42,5.42,0,0,1,4.14,4c.41,2.52-4.07,6.43-6.54,7.83a22.6,22.6,0,0,1-6.75,2.8s-1.24-5.61-6-6.69C236.9,145.59,218.34,159,218.66,158.77Z" style="fill:#45A49D"></path><polygon points="318.03 205.71 313.07 203.96 320.83 182.88 325.79 184.62 318.03 205.71" style="fill:#455a64"></polygon><polygon points="353.92 188.94 294.83 168.12 296.29 164.16 355.38 184.99 353.92 188.94" style="fill:#455a64"></polygon><polygon points="355.38 184.99 296.29 164.16 296.88 162.58 355.96 183.4 355.38 184.99" style="fill:#263238"></polygon><path d="M312.24,174.26s8.88,4.11,8.59,8.62l5,1.74a10.5,10.5,0,0,1,10.56-1.87L338.1,178l-24-8.47Z" style="fill:#263238"></path><path d="M316.39,211s-14.16,40.63-22.17,39.47c-5.06-.74-37.84-23-37.84-23l5.78-20.91L291.78,225l16.11-22.93Z" style="fill:#ffbf9d"></path><path d="M309.48,198.59s1.41-4.89,2.78-6.13,5.45-3.14,6-2.15l-.75,3.95s7.94-1.16,8.87.86a6.76,6.76,0,0,1,.52,3.9s2.67,1.68.86,4.17a4.65,4.65,0,0,1-.55,4.56l-1.09.89s.39,3.69-1.3,4.13-12.35-.76-12.35-.76l-4.92-9.1Z" style="fill:#ffbf9d"></path><path d="M223.24,196.78l24.8-.64L266.27,201a71,71,0,0,1,.72,16.24L266.36,231l-.91,34.73,1.22,11.82c1.8-.18,2.49.85,2.8,2.3.9,1.4-17.49,18-28.06,19.35-25.56,1.76-37-6.23-38.35-20.21.05-1.55.58-2.25,2.05-2.46l-.85-46.06,3.08-29.17Z" style="fill:#45A49D"></path><path d="M191.72,255.8c-6.61,6.27-12.11,1.62-13.54-.93s.26-8.48.26-8.48l9-15.38,16.33,8.21Z" style="fill:#ffbf9d"></path><path d="M207.35,201.3s-7.81,2.8-11.12,10.46c-.76,1.78-12.59,23-12.59,23l12.59,8.05,4.67,3,6.45-10V201.3Z" style="fill:#45A49D"></path><path d="M290.81,219.34l-23.48-17.28c-5.43-4.2-10.8-.73-14.41,5.1h0c-5.28,8.78.3,15.6,2.58,20.18l20.91,14.42Z" style="fill:#45A49D"></path><path d="M201.24,215.13c.14,0,1.07,6.92,2.07,15.5s1.7,15.55,1.56,15.57-1.07-6.93-2.07-15.51S201.1,215.14,201.24,215.13Z" style="fill:#263238"></path><path d="M205,277.07s4.68,11,24.3,12,37.39-11.53,37.39-11.53l-.74-7.18s-13.25,12.17-36.46,12.07c-20.19-.08-24.49-13.12-24.49-13.12Z" style="fill:#263238"></path><path d="M208.65,200.72s18,43.61,18,43.61l4.38-2.57L215.72,198S211.05,196.48,208.65,200.72Z" style="fill:#263238"></path><path d="M252.7,197.5A280.07,280.07,0,0,0,231,241.36l5.46,2.19S251.38,204,261,199.68C261,199.68,258.21,196.25,252.7,197.5Z" style="fill:#263238"></path><path d="M224.69,247S205.51,268.11,205,269.89a13.29,13.29,0,0,0,0,7.18l3.67-.55,18.54-24.21Z" style="fill:#263238"></path><path d="M231,250.44s33.08,28,33.94,27.14c2.32-2.24.86-8.25.86-8.25L233.54,246.2Z" style="fill:#263238"></path><path d="M259.2,231a16.77,16.77,0,0,1,2.62,1.43c1.58.94,3.75,2.27,6.13,3.76s4.51,2.87,6,3.89a16.6,16.6,0,0,1,2.42,1.73,16.77,16.77,0,0,1-2.62-1.43c-1.59-.94-3.75-2.26-6.13-3.75s-4.5-2.87-6-3.89A16.43,16.43,0,0,1,259.2,231Z" style="fill:#263238"></path><path d="M228.9,256.35a5.82,5.82,0,0,1-3.24-2.87c-1.44-2.82-4.19-10.36-3.6-11.84,1.72-4.28,12.55-4.61,15.21-1s-1.75,12.21-3.36,14.18A4.23,4.23,0,0,1,228.9,256.35Z" style="fill:#263238"></path><path d="M228.9,256.35a6.77,6.77,0,0,0,2.11.16,4.05,4.05,0,0,0,2.16-1.08,10.18,10.18,0,0,0,1.87-2.69,30,30,0,0,0,1.65-3.67,18.59,18.59,0,0,0,1.09-4.45,7.64,7.64,0,0,0-.11-2.43,3.82,3.82,0,0,0-1.28-2.05,9.6,9.6,0,0,0-5-1.66A15.23,15.23,0,0,0,226,239a8,8,0,0,0-2.29,1.08,3.69,3.69,0,0,0-1.44,1.79,6.56,6.56,0,0,0,.24,2.26c.17.75.37,1.47.59,2.17.42,1.38.87,2.66,1.31,3.82.9,2.3,1.63,4.2,2.72,5.07a8.75,8.75,0,0,0,1.78,1.16,2.29,2.29,0,0,1-.54-.16,5.11,5.11,0,0,1-1.37-.85,6,6,0,0,1-1.57-2c-.45-.88-.9-1.91-1.36-3.07s-.94-2.43-1.39-3.83c-.22-.7-.43-1.42-.61-2.19a6.75,6.75,0,0,1-.27-2.47,4.09,4.09,0,0,1,1.62-2.08,8.53,8.53,0,0,1,2.43-1.17,15.4,15.4,0,0,1,5.57-.54,9.86,9.86,0,0,1,5.3,1.78,4.26,4.26,0,0,1,1.44,2.33,8,8,0,0,1,.11,2.58,18.46,18.46,0,0,1-1.17,4.56,29.76,29.76,0,0,1-1.73,3.7,10.3,10.3,0,0,1-2,2.73,4.28,4.28,0,0,1-2.34,1.06,4.47,4.47,0,0,1-1.61-.15A2.11,2.11,0,0,1,228.9,256.35Z" style="fill:#455a64"></path><path d="M366.85,127V14.76a1.25,1.25,0,0,0-2.49,0V127a1.25,1.25,0,0,0,2.49,0Z" style="fill:#263238"></path><path d="M365.6,159.82v327.3a1.25,1.25,0,0,0,2.49,0V159.82a1.25,1.25,0,0,0-2.49,0Z" style="fill:#263238"></path><path d="M365.6,149.71v11.76a1.25,1.25,0,0,0,2.49,0V149.71a1.25,1.25,0,0,0-2.49,0Z" style="fill:#e0e0e0"></path><path d="M371.08,128.94c1.93.1,1.41,4.14,1.35,5.44a58.05,58.05,0,0,1-.91,7.55c-.44,2.33-.81,5-2.25,7s-4.09,2.6-5.91.65c-1.66-1.76-2.17-4.65-2.6-6.94a35.27,35.27,0,0,1-.51-7.61c0-1,.08-2,.21-3s.17-2.35,1.15-2.8a6.09,6.09,0,0,1,2.33-.17l7.14-.1a1.25,1.25,0,0,0,0-2.5l-8,.12c-1.61,0-3.16.3-4.13,1.76a7.62,7.62,0,0,0-.94,3.31,38.11,38.11,0,0,0-.28,4.41,36.89,36.89,0,0,0,1.14,9.53c.71,2.74,1.81,5.71,4.47,7.11a6.16,6.16,0,0,0,7.31-1.52c2-2.18,2.64-5.28,3.19-8.11A53.43,53.43,0,0,0,375,132.8c0-2.81-.4-6.17-3.88-6.36C369.48,126.36,369.48,128.85,371.08,128.94Z" style="fill:#e0e0e0"></path><path d="M148.7,199.81v-185a1.25,1.25,0,0,0-2.49,0v185a1.25,1.25,0,0,0,2.49,0Z" style="fill:#263238"></path><path d="M147.45,232.59V487.12a1.25,1.25,0,0,0,2.49,0V232.59a1.25,1.25,0,0,0-2.49,0Z" style="fill:#263238"></path><path d="M147.45,222.48v11.76a1.25,1.25,0,0,0,2.49,0V222.48a1.25,1.25,0,0,0-2.49,0Z" style="fill:#e0e0e0"></path><path d="M152.93,201.71c1.93.1,1.41,4.14,1.35,5.44a56.37,56.37,0,0,1-.91,7.55c-.43,2.34-.81,5-2.25,7s-4.09,2.59-5.91.64c-1.66-1.76-2.17-4.65-2.6-6.94a35.27,35.27,0,0,1-.51-7.61c0-1,.08-2,.21-3s.17-2.35,1.15-2.8a6.13,6.13,0,0,1,2.34-.17l7.13-.1a1.25,1.25,0,0,0,0-2.49l-8,.11c-1.61,0-3.16.3-4.13,1.76a7.61,7.61,0,0,0-.93,3.31,34.13,34.13,0,0,0-.28,4.41,36.45,36.45,0,0,0,1.13,9.53c.71,2.74,1.81,5.71,4.47,7.11a6.16,6.16,0,0,0,7.31-1.52c2-2.18,2.64-5.28,3.19-8.11a53.43,53.43,0,0,0,1.12-10.25c0-2.81-.39-6.17-3.88-6.35C151.33,199.13,151.33,201.62,152.93,201.71Z" style="fill:#e0e0e0"></path><rect x="127.36" y="306.82" width="251.58" height="10.83" style="fill:#ae7461"></rect><rect x="361.58" y="317.95" width="10.54" height="4.66" style="fill:#263238"></rect><rect x="144.12" y="317.95" width="10.54" height="4.66" style="fill:#263238"></rect><polygon points="129.37 345.47 136.89 397.92 174.22 397.92 179.95 345.65 129.37 345.47" style="fill:#455a64"></polygon><rect x="127.39" y="345.47" width="54.54" height="3.26" style="fill:#455a64"></rect><path d="M181.53,348.88c0,.15-12.13.23-27.07.19s-27.07-.2-27.07-.34,12.12-.23,27.07-.18S181.53,348.74,181.53,348.88Z" style="fill:#263238"></path><path d="M179,354c0,.15-10.79.26-24.11.26s-24.1-.11-24.1-.26,10.79-.26,24.1-.26S179,353.81,179,354Z" style="fill:#263238"></path><path d="M179,356.87c0,.15-10.75.26-24,.26s-24-.11-24-.26,10.75-.26,24-.26S179,356.73,179,356.87Z" style="fill:#263238"></path><path d="M137.36,306.16c.15,0,.26,8.93.26,19.94s-.11,19.95-.26,19.95-.26-8.93-.26-19.95S137.22,306.16,137.36,306.16Z" style="fill:#263238"></path><path d="M173.74,306.16c.14,0,.26,8.93.26,19.94s-.12,19.95-.26,19.95-.26-8.93-.26-19.95S173.6,306.16,173.74,306.16Z" style="fill:#263238"></path></g></svg>
