<svg width="62" height="70" viewBox="0 0 62 70" fill="none" xmlns="http://www.w3.org/2000/svg">
<path d="M29.7585 0.00957067C29.2772 0.0565161 28.0622 0.344046 27.5398 0.531824C26.7885 0.801752 25.8259 1.27706 25.0688 1.74063L24.4583 2.12205L23.9536 2.03989C22.1634 1.75236 21.6997 1.72889 20.6784 1.88146C19.346 2.0751 18.3716 2.42718 17.5616 3.00224C17.0803 3.33672 16.194 4.18757 15.4545 5.03257C14.803 5.77193 14.6151 5.88342 13.7641 6.06533C12.6488 6.30005 11.7978 6.63452 10.9291 7.17438C9.67299 7.95482 8.58125 8.98759 7.82409 10.1084C7.64213 10.3783 7.26061 11.1059 6.96713 11.7221C6.29801 13.1539 6.07497 13.5001 5.40584 14.1103C3.96193 15.4365 2.91716 17.2028 2.45346 19.0981C2.11303 20.4888 2.34781 23.1001 2.91129 24.2091C2.98172 24.3558 3.2752 24.8605 3.55694 25.3241C4.22019 26.4214 4.46084 26.9436 4.87171 28.1994C5.05954 28.7686 5.30019 29.4023 5.39997 29.6077C6.57974 31.9549 8.86886 33.6566 11.6452 34.2493C12.6723 34.4664 14.398 34.396 16.1001 34.0556C16.6988 33.9324 16.9043 33.9441 16.9043 34.1026C16.9043 34.2023 17.3503 35.2468 17.6379 35.8277C18.1721 36.8898 19.2168 38.1221 20.2147 38.8674C22.134 40.305 24.0709 40.8038 26.5127 40.4869C28.0153 40.2874 29.1011 39.9177 30.052 39.2664L30.4335 39.0023L31.5194 40.1055C32.5231 41.1265 32.6698 41.2556 33.4857 41.7837C35.1409 42.8634 36.4439 43.9138 37.7411 45.2106C39.0265 46.4899 39.6017 47.241 40.6172 48.9368L41.1806 49.8757L42.5835 49.9168C43.3582 49.9402 44.3208 49.9872 44.72 50.0165C45.6826 50.0928 45.841 50.0341 45.841 49.5999C45.841 49.2067 45.0545 46.3432 44.4265 44.4419C44.2798 43.996 44.2093 43.7084 44.2445 43.6732C44.2739 43.6439 44.7845 43.5969 45.3774 43.5676C46.6217 43.5089 47.4199 43.374 48.4178 43.0454C51.3408 42.083 53.8236 39.9588 55.0151 37.4062C55.3849 36.614 55.7488 35.6341 55.9073 34.9945C56.1538 34.0204 56.1656 34.0087 57.2279 33.3573C59.1531 32.1779 60.1921 30.5994 60.7262 28.0468C60.8729 27.3544 60.8905 27.1666 60.8905 26.0223C60.8964 25.0307 60.8729 24.6492 60.7907 24.2502C60.6205 23.4052 60.4151 22.7773 60.0629 21.9852L59.7225 21.2399L59.7401 20.2365C59.7636 18.7989 59.5464 17.4903 59.1003 16.4223C58.5603 15.1314 57.2455 13.7172 55.6138 12.6785C55.3614 12.5201 55.0856 12.2913 54.9916 12.1563C54.886 12.0096 54.7158 11.5871 54.5514 11.0766C53.9938 9.30446 53.2425 8.1602 51.8045 6.88098C50.1434 5.40812 48.5293 4.72743 46.0876 4.4575C45.5241 4.39883 45.1719 4.32841 45.0252 4.25799C44.896 4.18757 44.6613 3.95873 44.45 3.68293C43.4698 2.41544 42.5482 1.85212 40.6759 1.36508C39.097 0.960186 38.4807 0.977789 36.1446 1.51764L35.047 1.76997L34.6185 1.47657C34.3837 1.31226 33.9729 1.08341 33.7087 0.960186C32.4761 0.385121 30.5803 -0.0725796 29.7585 0.00957067ZM30.3161 5.93037C31.3374 6.27071 31.9948 7.26827 31.9126 8.34211C31.8657 8.94651 31.6309 9.43942 31.1613 9.89713L30.7974 10.2551L30.8972 10.701C31.0498 11.3641 32.1063 15.4717 32.1416 15.5304C32.1592 15.5539 32.4292 15.5773 32.7402 15.5773C33.0513 15.5773 33.4798 15.6184 33.6911 15.6654C34.2194 15.7886 34.9589 16.17 35.3405 16.5103L35.6633 16.7979L37.6941 14.7734L39.725 12.7431L39.5019 12.4438C38.9913 11.7573 38.827 11.2409 38.827 10.3255C38.8328 9.74456 38.8563 9.55678 38.9678 9.23991C39.6839 7.21545 41.9378 6.28244 43.8454 7.22132C44.45 7.52059 45.0956 8.16607 45.395 8.77047C45.8997 9.80323 45.8997 10.8947 45.395 11.9157L45.1837 12.3441L45.4537 12.6609C45.7354 12.9837 46.4808 13.6702 48.541 15.5245C49.2043 16.1172 49.9849 16.8272 50.2725 17.1089L50.8008 17.6135L51.153 17.3729C52.4677 16.4634 54.3166 16.8389 55.1853 18.1827C55.8075 19.1509 55.8016 20.4302 55.1677 21.3808C54.8625 21.8385 54.5397 22.1143 54.0173 22.3666C53.0136 22.8536 51.9277 22.7363 50.9945 22.0556C50.7597 21.8854 50.5014 21.592 50.2021 21.1578C50.1904 21.146 49.9556 21.2282 49.6797 21.3514C49.4039 21.4688 48.9226 21.6507 48.6115 21.7504C46.968 22.2668 46.2226 22.5368 46.023 22.6776C45.8293 22.8184 45.8 22.883 45.7354 23.2233C45.6943 23.4404 45.5945 23.7749 45.5065 23.9744L45.3539 24.3324L45.6708 24.6375C45.8469 24.8077 46.6158 25.5588 47.3789 26.3099L48.7699 27.6771L48.9989 27.4952C49.1221 27.3896 49.3628 27.2546 49.533 27.1901C50.7186 26.7441 52.0041 27.2663 52.5499 28.4165C52.7201 28.7744 52.7377 28.8566 52.7377 29.3964C52.7377 29.9422 52.726 30.0126 52.544 30.3764C51.9688 31.5441 50.7186 32.0429 49.5154 31.5969C49.0693 31.4268 48.5058 30.9045 48.2828 30.4527C47.9893 29.8483 47.9599 29.4434 48.1595 28.5456C48.1889 28.4165 47.9952 28.1994 46.4632 26.6737L44.7317 24.9426L44.403 25.1128C44.2211 25.2008 43.9041 25.3182 43.7104 25.371L43.3465 25.4649L43.2408 25.7876C43.1821 25.9637 42.9885 26.7148 42.8124 27.46C42.6363 28.1994 42.2548 29.725 41.9672 30.8458C41.6737 31.9666 41.4389 32.9055 41.4389 32.9348C41.4389 32.9583 41.6032 33.0874 41.7969 33.2165C42.6832 33.7798 43.2115 34.8889 43.1235 35.9686C42.9708 37.7759 41.2569 39.061 39.4902 38.6913C38.9796 38.5857 38.4689 38.3099 38.0404 37.8991C37.3654 37.2654 37.072 36.5554 37.1072 35.6458L37.1248 35.1177L36.7433 34.9886C36.532 34.9241 35.8628 34.6717 35.2465 34.4312C34.6361 34.1906 33.3507 33.6918 32.3998 33.328C31.449 32.9642 30.5333 32.6121 30.369 32.5475L30.0696 32.4243L29.7937 32.8292C28.3322 34.9593 25.2566 35.1118 23.6014 33.1285C22.2279 31.4796 22.4744 28.9915 24.1473 27.6243L24.3762 27.4424L23.2551 25.0424C21.8816 22.0908 21.4297 21.0874 20.696 19.3622C20.379 18.6169 20.0855 17.9656 20.0445 17.9069C19.9681 17.8013 19.9447 17.8013 19.4458 17.9245C19.0114 18.036 18.8295 18.0536 18.2836 18.0243C17.9314 18.0067 17.5382 17.9597 17.4208 17.9187C17.2975 17.8776 17.186 17.86 17.1684 17.8776C17.1508 17.8893 16.9688 18.3646 16.7634 18.9279C16.5579 19.4913 16.1236 20.6414 15.7949 21.4923L15.1962 23.0355L15.3606 23.1646C15.8536 23.5402 16.2116 24.1387 16.329 24.7783C16.5462 25.9519 15.7714 27.2018 14.6034 27.5539C13.4119 27.9177 12.191 27.3837 11.6334 26.2629C11.4397 25.8698 11.4162 25.77 11.3986 25.283C11.3752 24.702 11.4632 24.3089 11.6921 23.9216C11.8095 23.7338 11.8095 23.728 11.7038 23.6047C11.4456 23.3172 10.2247 22.2492 9.98994 22.1084C9.76103 21.9734 9.72581 21.9676 9.54973 22.038C9.44408 22.0849 9.16234 22.1201 8.89234 22.1201C8.31126 22.1143 7.88865 21.9382 7.48365 21.5333C7.06692 21.1167 6.8967 20.7059 6.90257 20.0957C6.90257 19.3446 7.17257 18.8165 7.76539 18.4233C8.20561 18.1358 8.76908 18.0008 9.2269 18.0888C9.94299 18.2238 10.4008 18.5524 10.706 19.1568C10.9643 19.6791 11.0171 20.0781 10.8939 20.5651C10.841 20.7705 10.7412 21.0228 10.6767 21.1284L10.5593 21.3221L10.9525 21.7387C11.1697 21.9617 11.5806 22.3666 11.8682 22.6248L12.3847 23.106L12.8132 22.9123C13.2828 22.7011 13.9284 22.6248 14.3627 22.7245L14.6034 22.7773L14.6445 22.5661C14.6914 22.2962 15.5543 19.7143 16.018 18.4526C16.3525 17.549 16.3701 17.4786 16.2762 17.4081C15.5425 16.8918 15.1669 16.4517 14.8088 15.7182C13.7288 13.4942 14.8675 10.836 17.2271 10.0849C18.671 9.6272 20.2558 10.0027 21.3123 11.0531C21.5588 11.2996 21.7877 11.546 21.8171 11.6106C21.8699 11.7103 21.9227 11.6927 22.4568 11.37C23.0144 11.0296 23.531 10.748 26.0607 9.39834L27.2053 8.78808L27.1877 8.38319C27.1055 6.62866 28.6961 5.37878 30.3161 5.93037Z" fill="#219EAF"/>
<path d="M27.264 9.77389C26.5009 10.1612 22.3042 12.4204 22.3042 12.4438C22.3042 12.4614 22.3629 12.6903 22.4275 12.9543C22.539 13.3651 22.5507 13.547 22.5273 14.1984L22.4979 14.9671L23.0027 15.1783C23.6601 15.4541 25.0629 16.0526 25.7672 16.3519C26.0725 16.481 26.9294 16.88 27.6631 17.2321C28.4027 17.5842 29.0131 17.8658 29.0248 17.8541C29.0307 17.8424 29.1481 17.6605 29.2831 17.4433C29.6177 16.9152 30.2809 16.2991 30.8033 16.0468C31.0322 15.9353 31.22 15.8062 31.22 15.7592C31.2259 15.7182 31.1437 15.4013 31.044 15.0551C30.9442 14.7147 30.6566 13.6292 30.4042 12.6433C30.1518 11.6575 29.917 10.7832 29.8877 10.701C29.829 10.5602 29.7937 10.5426 29.3887 10.5191C28.8429 10.4839 28.3088 10.2492 27.9096 9.86191C27.7511 9.71521 27.622 9.59198 27.622 9.59198C27.6161 9.59785 27.4577 9.68 27.264 9.77389Z" fill="#219EAF"/>
<path d="M43.6987 13.5177L43.1704 13.7876L43.1528 14.0634C43.1352 14.3216 43.3817 17.2614 43.5813 19.2155C43.6282 19.6849 43.6693 20.0957 43.6693 20.1368C43.6693 20.172 43.7691 20.2365 43.8924 20.2717C44.5321 20.4771 45.1837 20.9993 45.4184 21.4864C45.53 21.7211 45.7002 21.7387 46.2578 21.5685C46.4632 21.504 47.0326 21.3514 47.5139 21.2165C48.5352 20.9465 49.1162 20.7177 49.5682 20.4184L49.891 20.2013V19.7495C49.891 19.2859 49.9967 18.8223 50.1904 18.4409L50.296 18.2297L49.6973 17.6781C48.993 17.0326 47.9189 16.082 46.6921 15.0199C46.2108 14.5974 45.6415 14.0927 45.4302 13.8991C44.9078 13.4062 44.6319 13.2301 44.4089 13.2419C44.3091 13.2419 43.9921 13.371 43.6987 13.5177Z" fill="#219EAF"/>
<path d="M39.0206 14.6854C37.5415 16.1876 36.4733 17.3495 36.3735 17.5548C36.3265 17.6605 36.35 17.7602 36.4733 18.0419C36.9781 19.1627 36.8841 20.6297 36.2326 21.7328C35.8863 22.3196 35.2583 22.9064 34.6478 23.2233C34.3661 23.37 33.9611 23.5343 33.7498 23.593C33.2392 23.7338 32.212 23.7338 31.719 23.5989C31.5194 23.546 31.3316 23.4991 31.3022 23.4991C31.1966 23.4991 30.2985 25.0365 29.2596 27.0023L28.972 27.5421L29.2772 27.8414C29.4416 28.0057 29.6587 28.258 29.7585 28.3989L29.9405 28.6629L30.3513 28.4575C31.2318 28.0116 37.7 25.0365 38.9561 24.4908C39.32 24.3382 39.8483 24.1035 40.1359 23.9685L40.6582 23.7221L40.5819 23.3935C40.3002 22.2081 40.8989 20.9641 41.9965 20.436C42.1902 20.348 42.4485 20.2541 42.5717 20.2306C42.7948 20.1954 42.7948 20.1954 42.7654 19.9842C42.7243 19.7143 42.6363 18.658 42.5248 16.9856C42.4308 15.6243 42.3369 14.5798 42.2841 14.3744C42.2665 14.3098 42.2137 14.1631 42.1667 14.0458C42.0787 13.8463 42.0611 13.8345 41.6502 13.7641C41.4095 13.7289 41.0339 13.6057 40.805 13.4942L40.3882 13.2947L39.0206 14.6854Z" fill="#219EAF"/>
<path d="M21.9051 16.1817C21.682 16.5279 21.0481 17.191 20.8192 17.3142C20.7253 17.3671 20.7312 17.4081 20.9307 17.8424C21.0481 18.0947 21.5118 19.1509 21.9638 20.1837C23.1788 22.9651 23.5838 23.8394 24.4231 25.5001L25.1862 26.9964L25.6088 26.8849C26.1722 26.7382 27.2757 26.7676 27.7746 26.9436L28.1151 27.061L28.9603 25.5881C29.424 24.7783 29.9405 23.8688 30.1107 23.5695L30.4218 23.0238L30.1929 22.836C29.5648 22.3314 29.0894 21.6448 28.8311 20.8761C28.7079 20.4947 28.6785 20.3011 28.6785 19.7436C28.6727 19.3739 28.6844 18.9808 28.702 18.8751L28.7314 18.6815L27.264 18.0771C25.5912 17.3847 23.8244 16.616 22.8207 16.1465L22.1399 15.8238L21.9051 16.1817Z" fill="#219EAF"/>
<path d="M39.7661 25.06C38.5863 25.6233 38.3633 25.7231 36.9194 26.3627C36.485 26.5563 35.0587 27.2135 33.7498 27.8238C32.4409 28.4399 31.1496 29.0385 30.8737 29.1558C30.5979 29.2791 30.3572 29.3964 30.3337 29.414C30.3103 29.4375 30.3337 29.6253 30.3866 29.8365C30.4687 30.1827 30.4746 31.2566 30.3983 31.5324C30.3807 31.5911 31.3433 31.9959 33.8672 32.9818C35.7865 33.7387 37.3654 34.3549 37.3713 34.3549C37.3772 34.3549 37.477 34.2082 37.6002 34.0321C38.1461 33.2106 39.0676 32.7118 40.0713 32.7118H40.488L40.67 32.1661C40.8402 31.638 41.0339 30.9397 41.4682 29.2791C41.5856 28.8272 41.8674 27.8121 42.0904 27.0316C42.3135 26.2453 42.4954 25.5529 42.4954 25.4883C42.4954 25.4238 42.4485 25.3593 42.3956 25.3416C42.0669 25.2302 41.6443 24.9837 41.3919 24.7607C41.2276 24.614 41.0632 24.4967 41.0222 24.4967C40.9752 24.5025 40.4117 24.7549 39.7661 25.06Z" fill="#219EAF"/>
<path d="M0 69.7853V57.2608H2.37992L9.71507 66.2784H8.56062V57.2608H11.4023V69.7853H9.04016L1.68726 60.7677H2.8417V69.7853H0Z" fill="#219EAF"/>
<path d="M16.9901 62.3064H22.9755V64.5608H16.9901V62.3064ZM17.2033 67.4593H23.9701V69.7853H14.3438V57.2608H23.7392V59.5868H17.2033V67.4593Z" fill="#219EAF"/>
<path d="M24.7171 69.7853L30.0631 62.3601V64.4713L24.948 57.2608H28.216L31.7503 62.2885L30.3828 62.3064L33.8638 57.2608H36.9897L31.9102 64.3461V62.2706L37.2916 69.7853H33.9704L30.3117 64.4713H31.626L28.0206 69.7853H24.7171Z" fill="#219EAF"/>
<path d="M44.1668 70C42.4026 70 41.0232 69.505 40.0286 68.515C39.034 67.5249 38.5367 66.1115 38.5367 64.2745V57.2608H41.4139V64.1672C41.4139 65.36 41.6566 66.2188 42.1421 66.7436C42.6276 67.2685 43.3084 67.5309 44.1846 67.5309C45.0608 67.5309 45.7416 67.2685 46.227 66.7436C46.7125 66.2188 46.9552 65.36 46.9552 64.1672V57.2608H49.7969V64.2745C49.7969 66.1115 49.2996 67.5249 48.305 68.515C47.3104 69.505 45.931 70 44.1668 70Z" fill="#219EAF"/>
<path d="M56.7251 70C55.7305 70 54.7773 69.8688 53.8656 69.6064C52.9539 69.332 52.2198 68.9801 51.6633 68.5507L52.6402 66.3679C53.173 66.7496 53.8005 67.0657 54.5228 67.3162C55.2569 67.5547 55.9969 67.674 56.7429 67.674C57.3112 67.674 57.7671 67.6203 58.1104 67.513C58.4656 67.3937 58.7261 67.2327 58.8919 67.0299C59.0577 66.8271 59.1405 66.5945 59.1405 66.3321C59.1405 65.9981 59.0103 65.7357 58.7498 65.5449C58.4893 65.3421 58.146 65.1811 57.7197 65.0618C57.2934 64.9306 56.8198 64.8113 56.2988 64.7039C55.7897 64.5847 55.2746 64.4415 54.7537 64.2745C54.2445 64.1075 53.7768 63.8928 53.3506 63.6304C52.9243 63.368 52.575 63.0221 52.3027 62.5927C52.0422 62.1633 51.912 61.6146 51.912 60.9466C51.912 60.2309 52.1014 59.5808 52.4803 58.9964C52.871 58.4 53.4512 57.9288 54.2208 57.5829C55.0023 57.225 55.9791 57.0461 57.1514 57.0461C57.9328 57.0461 58.7024 57.1415 59.4602 57.3324C60.218 57.5113 60.887 57.7857 61.4672 58.1554L60.5792 60.3562C59.999 60.0222 59.4188 59.7776 58.8386 59.6226C58.2584 59.4556 57.6901 59.3721 57.1336 59.3721C56.5771 59.3721 56.1212 59.4377 55.766 59.5689C55.4108 59.7001 55.1562 59.8731 55.0023 60.0878C54.8484 60.2906 54.7714 60.5291 54.7714 60.8035C54.7714 61.1255 54.9017 61.3879 55.1622 61.5907C55.4226 61.7816 55.766 61.9366 56.1923 62.0559C56.6185 62.1752 57.0862 62.2945 57.5954 62.4137C58.1163 62.533 58.6314 62.6702 59.1405 62.8253C59.6615 62.9803 60.1351 63.1891 60.5614 63.4515C60.9877 63.7139 61.331 64.0598 61.5915 64.4892C61.8638 64.9186 62 65.4614 62 66.1174C62 66.8212 61.8046 67.4653 61.4139 68.0498C61.0232 68.6342 60.4371 69.1054 59.6556 69.4632C58.886 69.8211 57.9091 70 56.7251 70Z" fill="#219EAF"/>
</svg>
